<svg width="104.000000" height="90.000000" viewBox="0 0 104 90" fill="none" xmlns="http://www.w3.org/2000/svg" xmlns:xlink="http://www.w3.org/1999/xlink">
    <desc>
        Created with Pixso.
    </desc>
    <defs>
        <filter id="filter_231_2493_dd" x="-0.289062" y="-0.642578" width="71.789062" height="90.166016" filterUnits="userSpaceOnUse" color-interpolation-filters="sRGB">
            <feFlood flood-opacity="0" result="BackgroundImageFix"/>
            <feColorMatrix in="SourceAlpha" type="matrix" values="0 0 0 0 0 0 0 0 0 0 0 0 0 0 0 0 0 0 127 0" result="hardAlpha"/>
            <feOffset dx="-7.80952" dy="0"/>
            <feGaussianBlur stdDeviation="6.50794"/>
            <feComposite in2="hardAlpha" operator="out" k2="-1" k3="1"/>
            <feColorMatrix type="matrix" values="0 0 0 0 1 0 0 0 0 1 0 0 0 0 1 0 0 0 0.09 0"/>
            <feBlend mode="normal" in2="BackgroundImageFix" result="effect_dropShadow_1"/>
            <feBlend mode="normal" in="SourceGraphic" in2="effect_dropShadow_1" result="shape"/>
            <feColorMatrix in="SourceAlpha" type="matrix" values="0 0 0 0 0 0 0 0 0 0 0 0 0 0 0 0 0 0 127 0" result="hardAlpha"/>
            <feOffset dx="3.90476" dy="3.90476"/>
            <feGaussianBlur stdDeviation="9.11111"/>
            <feComposite in2="hardAlpha" operator="arithmetic" k2="-1" k3="1"/>
            <feColorMatrix type="matrix" values="0 0 0 0 1 0 0 0 0 1 0 0 0 0 1 0 0 0 0.1 0"/>
            <feBlend mode="normal" in2="shape" result="effect_innerShadow_2"/>
        </filter>
    </defs>
    <g filter="url(#filter_231_2493_dd)">
        <path id="F" d="M36.29 70L27.04 70L27.04 18.88L59.78 18.88L59.78 26.63L36.29 26.63L36.29 40.51L57.53 40.51L57.53 48.29L36.29 48.29L36.29 70Z" fill="#135F55" fill-opacity="1.000000" fill-rule="evenodd"/>
    </g>
    <path id="movie" d="M84.71 47Q84.51 47.41 84.52 47.93Q84.54 48.51 84.8 48.93Q84.95 49.18 85.18 49.37Q85.48 49.62 85.83 49.75Q86.21 49.89 86.66 49.88Q87.28 49.86 87.75 49.58Q87.98 49.44 88.17 49.24Q88.48 48.91 88.62 48.52Q88.74 48.18 88.73 47.8Q88.71 47.31 88.51 46.92Q88.35 46.62 88.07 46.38Q87.79 46.14 87.46 46.01Q87.06 45.85 86.59 45.86Q86.13 45.86 85.73 46.03Q85.39 46.18 85.11 46.45Q84.85 46.7 84.71 47ZM64.09 52.07Q62.84 51.36 61.19 51.33Q59.6 51.29 58.27 51.86Q57.08 52.37 56.1 53.36Q55.89 53.57 55.7 53.8Q53.98 55.83 53.67 59.05Q53.48 61.06 54.13 62.73Q54.6 63.91 55.42 64.73Q55.76 65.07 56.16 65.34Q56.37 65.48 56.58 65.6Q57.82 66.29 59.42 66.31Q61.1 66.34 62.48 65.72Q63.63 65.2 64.58 64.23Q64.97 63.83 65.3 63.39Q66.72 61.46 66.97 58.66Q67.16 56.62 66.51 54.94Q66.07 53.79 65.27 52.97Q64.91 52.61 64.48 52.32Q64.29 52.18 64.09 52.07ZM92.63 65.7Q93.88 66.3 95.41 66.31Q96.73 66.33 97.92 65.95Q98.32 65.82 98.71 65.65Q100.1 65.03 100.9 63.96Q100.98 63.85 101.06 63.73L99.34 61.6Q98.35 62.65 97.16 63Q96.48 63.21 95.73 63.19Q94.86 63.17 94.24 62.76Q93.96 62.58 93.73 62.32Q93.65 62.22 93.58 62.12Q93 61.32 93.05 60.08L101.9 60.08L102.11 58.43Q102.43 55.69 101.3 53.8Q101.17 53.59 101.03 53.38Q100.53 52.7 99.88 52.24Q98.63 51.37 96.8 51.33Q95.53 51.3 94.41 51.69Q93.8 51.9 93.23 52.24Q92.94 52.41 92.67 52.6Q91.43 53.5 90.58 54.95Q90.28 55.47 90.05 56.03Q89.5 57.34 89.36 58.82L89.32 59.36Q89.18 61.03 89.71 62.46Q89.78 62.67 89.88 62.87Q90.27 63.74 90.88 64.41Q91.39 64.97 92.06 65.38Q92.34 65.55 92.63 65.7ZM35.54 53.23L35.85 51.59L32.34 51.6L29.84 66.04L33.61 66.04L35.41 55.82Q36.31 54.73 37.38 54.52Q37.68 54.46 37.98 54.47Q38.78 54.49 39.17 54.9Q39.53 55.26 39.57 55.93Q39.59 56.35 39.53 56.85L38 66.04L41.76 66.04L43.44 56.42L43.48 56.11Q44.33 54.84 45.44 54.55Q45.78 54.46 46.14 54.46Q46.95 54.48 47.35 54.9Q47.7 55.25 47.74 55.9Q47.75 56.33 47.7 56.82L46.17 66.04L49.94 66.04L51.48 56.85L51.5 56.51Q51.66 54.02 50.66 52.7Q50.38 52.34 50.04 52.07Q49.11 51.36 47.66 51.33Q46.84 51.32 46.09 51.54Q44.48 52 43.18 53.54Q43.03 53.06 42.76 52.68Q42.45 52.26 41.99 51.95Q41.11 51.36 39.77 51.33Q38.72 51.31 37.8 51.65Q36.55 52.11 35.54 53.23ZM78.04 51.6L73.93 61.28L72.86 51.6L69.04 51.6L71.51 66.04L75.11 66.04L82.09 51.6L78.04 51.6ZM81.57 66.04L85.36 66.04L87.87 51.6L84.08 51.6L81.57 66.04ZM57.99 62.45Q57.42 61.7 57.39 60.42Q57.31 57.66 58.32 56.03Q58.95 55 59.85 54.64Q60.38 54.42 61.01 54.44Q61.67 54.46 62.14 54.77Q62.42 54.95 62.63 55.24Q63.2 56.01 63.25 57.29Q63.32 59.97 62.33 61.62Q61.74 62.6 60.88 62.98Q60.3 63.23 59.61 63.21Q58.94 63.2 58.46 62.88Q58.2 62.71 57.99 62.45ZM95.68 54.58Q96.12 54.43 96.62 54.44Q97.3 54.46 97.78 54.78Q97.86 54.83 97.94 54.89Q98.04 54.98 98.13 55.08Q98.48 55.48 98.59 56.1Q98.66 56.58 98.58 57.11L98.5 57.46L93.32 57.46Q93.96 55.78 94.77 55.1Q95.19 54.74 95.68 54.58Z" fill="#E8920B" fill-opacity="0.500000" fill-rule="evenodd"/>
</svg>
