<svg width="58" height="58" viewBox="0 0 58 58" fill="none" xmlns="http://www.w3.org/2000/svg">
<g clip-path="url(#clip0_231_174)">
<path d="M29.0002 56.8402C44.3758 56.8402 56.8402 44.3758 56.8402 29.0002C56.8402 13.6245 44.3758 1.16016 29.0002 1.16016C13.6245 1.16016 1.16016 13.6245 1.16016 29.0002C1.16016 44.3758 13.6245 56.8402 29.0002 56.8402Z" stroke="#E8920B" stroke-width="3" stroke-miterlimit="10" stroke-linecap="round"/>
<path d="M34.7242 41.2131C34.5548 39.3432 34.6198 38.0382 34.6198 36.3295C35.4666 35.8853 36.9839 33.0525 37.2402 30.6595C37.9061 30.6049 38.9559 29.9553 39.2633 27.3906C39.4291 26.0137 38.7703 25.2388 38.3689 24.9952C39.4523 21.7367 41.7027 11.6563 34.2068 10.6147C33.4354 9.25978 31.4599 8.57422 28.8928 8.57422C18.6222 8.7633 17.3833 16.33 19.6349 24.9952C19.2347 25.2388 18.5758 26.0137 18.7405 27.3906C19.0491 29.9553 20.0977 30.6049 20.7636 30.6595C21.0188 33.0514 22.5964 35.8853 23.4455 36.3295C23.4455 38.0382 23.5093 39.3432 23.3399 41.2131C21.8772 45.1455 14.365 45.4529 10.0312 49.245C14.5622 53.8073 21.905 57.0703 29.6538 57.0703C37.4026 57.0703 46.5109 50.9525 48.0271 49.2833C43.72 45.4564 36.1904 45.1595 34.7242 41.2131Z" stroke="#E8920B" stroke-width="3" stroke-miterlimit="10" stroke-linecap="round"/>
</g>
<defs>
<clipPath id="clip0_231_174">
<rect width="58" height="58" fill="white"/>
</clipPath>
</defs>
</svg>
